<?xml version="1.0" encoding="UTF-8" standalone="no"?>
<svg
   xmlns:dc="http://purl.org/dc/elements/1.1/"
   xmlns:cc="http://creativecommons.org/ns#"
   xmlns:rdf="http://www.w3.org/1999/02/22-rdf-syntax-ns#"
   xmlns:svg="http://www.w3.org/2000/svg"
   xmlns="http://www.w3.org/2000/svg"
   xmlns:xlink="http://www.w3.org/1999/xlink"
   xmlns:sodipodi="http://sodipodi.sourceforge.net/DTD/sodipodi-0.dtd"
   xmlns:inkscape="http://www.inkscape.org/namespaces/inkscape"
   version="1.0"
   viewBox="0 0 88.688399 151.88015"
   id="svg95"
   sodipodi:docname="light_both - Copy (2).svg"
   width="88.6884"
   height="151.88016"
   inkscape:version="1.0.1 (3bc2e813f5, 2020-09-07)">
  <metadata
     id="metadata99">
    <rdf:RDF>
      <cc:Work
         rdf:about="">
        <dc:format>image/svg+xml</dc:format>
        <dc:type
           rdf:resource="http://purl.org/dc/dcmitype/StillImage" />
        <dc:title></dc:title>
      </cc:Work>
    </rdf:RDF>
  </metadata>
  <sodipodi:namedview
     pagecolor="#ffffff"
     bordercolor="#666666"
     borderopacity="1"
     objecttolerance="10"
     gridtolerance="10"
     guidetolerance="10"
     inkscape:pageopacity="0"
     inkscape:pageshadow="2"
     inkscape:window-width="1882"
     inkscape:window-height="1099"
     id="namedview97"
     showgrid="false"
     inkscape:zoom="4.5125244"
     inkscape:cx="99.347701"
     inkscape:cy="75.940202"
     inkscape:window-x="321"
     inkscape:window-y="80"
     inkscape:window-maximized="0"
     inkscape:current-layer="svg95" />
  <defs
     id="defs45">
    <linearGradient
       id="a">
      <stop
         offset="0"
         id="stop2" />
      <stop
         stop-opacity="0"
         offset="1"
         id="stop4" />
    </linearGradient>
    <linearGradient
       id="q">
      <stop
         stop-color="#585858"
         offset="0"
         id="stop7" />
      <stop
         stop-color="#434343"
         offset="1"
         id="stop9" />
    </linearGradient>
    <linearGradient
       id="p">
      <stop
         stop-color="#808080"
         offset="0"
         id="stop12" />
      <stop
         stop-color="#5b5b5b"
         offset="1"
         id="stop14" />
    </linearGradient>
    <linearGradient
       id="s"
       x1="340.54999"
       x2="371.79999"
       y1="707.60999"
       y2="707.60999"
       gradientTransform="translate(-111.02)"
       gradientUnits="userSpaceOnUse"
       xlink:href="#p" />
    <linearGradient
       id="x"
       x1="425.29999"
       x2="425.29999"
       y1="686.33002"
       y2="700.67999"
       gradientTransform="translate(-179.78)"
       gradientUnits="userSpaceOnUse"
       xlink:href="#a" />
    <linearGradient
       id="y"
       x1="178.75"
       x2="140.99001"
       y1="127.11"
       y2="127.11"
       gradientTransform="translate(84.033,580)"
       gradientUnits="userSpaceOnUse"
       xlink:href="#q" />
    <linearGradient
       id="z"
       x1="353.85999"
       x2="353.85999"
       y1="690.17999"
       y2="693.88"
       gradientTransform="translate(-111.02)"
       gradientUnits="userSpaceOnUse"
       xlink:href="#a" />
    <linearGradient
       id="aa"
       x1="316.29999"
       x2="388.54999"
       y1="614.85999"
       y2="640.85999"
       gradientTransform="translate(-111.02)"
       gradientUnits="userSpaceOnUse">
      <stop
         stop-color="#959595"
         stop-opacity=".30622"
         offset="0"
         id="stop21" />
      <stop
         stop-color="#3d3d3d"
         stop-opacity=".53589"
         offset="1"
         id="stop23" />
    </linearGradient>
    <linearGradient
       id="ab"
       x1="362.04999"
       x2="362.04999"
       y1="685.28998"
       y2="652.84003"
       gradientTransform="translate(-111.02)"
       gradientUnits="userSpaceOnUse">
      <stop
         stop-color="#b9b9b9"
         offset="0"
         id="stop26" />
      <stop
         stop-color="#cecece"
         stop-opacity="0"
         offset="1"
         id="stop28" />
    </linearGradient>
    <linearGradient
       inkscape:collect="always"
       xlink:href="#p"
       id="linearGradient924"
       gradientUnits="userSpaceOnUse"
       gradientTransform="translate(-111.02)"
       x1="340.54999"
       y1="707.60999"
       x2="371.79999"
       y2="707.60999" />
  </defs>
  <g
     transform="translate(-200.076,-581.0898)"
     id="g67">
    <rect
       x="227.55"
       y="687.35999"
       width="33.75"
       height="31.25"
       rx="0"
       ry="0"
       color="#000000"
       fill="url(#s)"
       id="rect47"
       style="fill:url(#linearGradient924)" />
    <rect
       x="227.55"
       y="687.35999"
       width="33.75"
       height="31.25"
       rx="0"
       ry="0"
       color="#000000"
       fill="url(#x)"
       id="rect49"
       style="fill:url(#x)" />
    <path
       d="m 225.53,695.84 v 2.4375 l 17.75,-2.4375 z m 37.75,0.25 -37.75,5.1875 v 2.0625 l 37.75,-5.1875 z m 0,5.0625 -37.75,5.1875 v 2.0625 l 37.75,-5.1875 z m 0,5.0625 -37.75,5.1875 v 2.0312 l 37.75,-5.1875 z m 0,5.0312 -37.75,5.1875 v 2.0625 l 37.75,-5.1875 z"
       fill="url(#y)"
       id="path51"
       style="fill:url(#y)" />
    <path
       d="m 225.17,688.22 v 5.25 c 0,1.385 1.115,2.5 2.5,2.5 h 33.5 c 1.385,0 2.5,-1.115 2.5,-2.5 v -5.25 z"
       color="#000000"
       fill="url(#s)"
       id="path53"
       style="fill:url(#s)" />
    <path
       d="m 225.17,688.22 v 5.25 c 0,1.385 1.115,2.5 2.5,2.5 h 33.5 c 1.385,0 2.5,-1.115 2.5,-2.5 v -5.25 z"
       color="#000000"
       fill="url(#z)"
       id="path55"
       style="fill:url(#z)" />
    <path
       d="m 244.42,581.09 c -24.493,0 -44.344,19.851 -44.344,44.344 0,11.167 4.1252,21.359 10.938,29.156 3.878,4.0518 6.5995,9.9233 7.4688,16.656 l 0.0191,12.429 c 0,4.4527 3.5756,8.0284 8.0284,8.0284 h 35.78 c 4.4527,0 8.0284,-3.5756 8.0284,-8.0284 l -0.0121,-12.429 c 0.86451,-6.7196 3.6103,-12.574 7.4688,-16.625 0.003,-0.01 -0.002,-0.0215 0,-0.0312 6.8156,-7.7976 10.969,-17.986 10.969,-29.156 0,-24.493 -19.851,-44.344 -44.344,-44.344 z"
       fill="url(#aa)"
       opacity="0.68293"
       id="path57"
       style="fill:url(#aa)" />
    <path
       d="m 227.53,718.59 4.25,4.75 h 25.25 l 4.25,-4.75 z"
       color="#000000"
       fill="#808080"
       id="path59" />
    <path
       d="m 231.77,723.34 c 0,1.0374 0.52146,2.0748 1.5644,2.8696 l 7.3055,5.568 c 2.0859,1.5898 5.4444,1.5898 7.5303,0 l 7.3055,-5.568 c 1.043,-0.79489 1.5644,-1.8323 1.5644,-2.8696 z"
       color="#000000"
       fill="#343434"
       id="path61" />
    <path
       d="m 244.42,581.09 c -24.493,0 -44.344,19.851 -44.344,44.344 0,11.167 4.1252,21.359 10.938,29.156 3.878,4.0518 6.5995,9.9233 7.4688,16.656 l 0.0191,12.429 c 0,4.4527 3.5756,8.0284 8.0284,8.0284 h 35.78 c 4.4527,0 8.0284,-3.5756 8.0284,-8.0284 l -0.0121,-12.429 c 0.86451,-6.7196 3.6103,-12.574 7.4688,-16.625 0.003,-0.01 -0.002,-0.0215 0,-0.0312 6.8156,-7.7976 10.969,-17.986 10.969,-29.156 0,-24.493 -19.851,-44.344 -44.344,-44.344 z"
       fill="url(#ab)"
       id="path63"
       style="fill:url(#ab)" />
    <path
       d="m 231.38,591.37 c -13.547,6.7471 -22.938,20.62 -22.938,36.812 0,0.60674 0.12823,1.3296 0.1875,1.9688 l 11.938,-2.0312 c 1.356,-11.127 7.9158,-20.595 17.25,-25.906 l -6.4375,-10.844 z"
       fill="#ffffff"
       id="path65" />
  </g>
</svg>
