<svg fill="none" height="15" viewBox="0 0 15 15" width="15" xmlns="http://www.w3.org/2000/svg"><path clip-rule="evenodd" d="m2 2.5c0-.27614.22386-.5.5-.5h1c.27614 0 .5.22386.5.5v3.5h.5c.27614 0 .5.22386.5.5s-.22386.5-.5.5h-2c-.27614 0-.5-.22386-.5-.5s.22386-.5.5-.5h.5v-3h-.5c-.27614 0-.5-.22386-.5-.5zm4 0c0-.27614.22386-.5.5-.5h2c.27614 0 .5.22386.5.5v2c0 .27614-.22386.5-.5.5h-1.5v-1h1v-1h-1.5c-.27614 0-.5-.22386-.5-.5zm1 3.5h1.5c.27614 0 .5.22386.5.5s-.22386.5-.5.5h-2c-.27614 0-.5-.22386-.5-.5v-1.5h1zm3-3.5c0-.27614.2239-.5.5-.5h2c.2761 0 .5.22386.5.5v4c0 .27614-.2239.5-.5.5h-2c-.2761 0-.5-.22386-.5-.5s.2239-.5.5-.5h1.5v-1h-.5c-.2761 0-.5-.22386-.5-.5s.2239-.5.5-.5h.5v-1h-1.5c-.2761 0-.5-.22386-.5-.5zm-5.5 5.5c.27614 0 .5.22386.5.5v4c0 .2761-.22386.5-.5.5s-.5-.2239-.5-.5v-1.5h-1.5c-.27614 0-.5-.2239-.5-.5v-1c0-.27614.22386-.5.5-.5s.5.22386.5.5v.5h1v-1.5c0-.27614.22386-.5.5-.5zm1.5.5c0-.27614.22386-.5.5-.5h2c.27614 0 .5.22386.5.5s-.22386.5-.5.5h-1.5v1h1.5c.27614 0 .5.2239.5.5v2c0 .2761-.22386.5-.5.5h-2c-.27614 0-.5-.2239-.5-.5s.22386-.5.5-.5h1.5v-1h-1.5c-.27614 0-.5-.2239-.5-.5zm4 0c0-.27614.2239-.5.5-.5h1c.2761 0 .5.22386.5.5s-.2239.5-.5.5h-.5v1h1.5c.2761 0 .5.2239.5.5v2c0 .2761-.2239.5-.5.5h-2c-.2761 0-.5-.2239-.5-.5zm1 2.5v1h1v-1z" fill="#151515" fill-rule="evenodd"/></svg>